<?xml version="1.0" standalone="no"?>
<!DOCTYPE svg PUBLIC "-//W3C//DTD SVG 20010904//EN"
 "http://www.w3.org/TR/2001/REC-SVG-20010904/DTD/svg10.dtd">
<svg version="1.0" xmlns="http://www.w3.org/2000/svg"
 width="300.000000pt" height="264.000000pt" viewBox="0 0 300.000000 264.000000"
 preserveAspectRatio="xMidYMid meet">
<metadata>
Created by potrace 1.10, written by Peter Selinger 2001-2011
</metadata>
<g transform="translate(0.000000,264.000000) scale(0.100000,-0.100000)"
fill="#000000" stroke="none">
<path d="M1383 2060 c-91 -13 -98 -17 -113 -57 -8 -21 -16 -41 -18 -45 -2 -4
9 -5 25 -2 37 7 201 -11 278 -31 48 -13 117 -41 177 -73 7 -3 78 119 78 135 0
14 -145 62 -225 73 -79 11 -127 11 -202 0z m272 -57 c97 -24 110 -37 80 -77
-14 -18 -16 -18 -77 7 -63 25 -170 50 -261 62 -59 8 -53 17 16 26 67 8 167 1
242 -18z"/>
<path d="M1901 2026 c-7 -8 -30 -51 -52 -96 -22 -45 -62 -115 -90 -155 -65
-94 -222 -246 -324 -314 -174 -114 -413 -211 -623 -251 -106 -20 -142 -39
-142 -75 0 -27 36 -58 68 -57 65 2 211 35 338 77 412 135 708 375 874 707 28
55 50 108 50 119 0 45 -72 78 -99 45z m49 -56 c0 -28 -62 -149 -123 -240 -65
-98 -230 -260 -337 -332 -178 -118 -442 -226 -647 -264 -156 -28 -170 5 -16
37 479 99 872 370 1050 724 19 39 40 76 45 83 15 18 28 15 28 -8z"/>
<path d="M1159 1990 c-29 -15 -41 -31 -58 -77 -53 -143 -74 -337 -51 -483 15
-95 13 -92 60 -71 22 10 42 20 44 22 3 2 -2 31 -10 64 -31 135 -11 372 45 513
11 28 17 52 13 52 -4 -1 -23 -9 -43 -20z"/>
<path d="M2036 1901 c-10 -27 -42 -91 -72 -141 -178 -301 -463 -523 -844 -655
-114 -39 -301 -85 -349 -85 -52 0 -50 -70 2 -89 44 -16 309 56 492 134 389
167 662 409 814 724 47 96 49 113 21 141 -31 31 -44 24 -64 -29z"/>
<path d="M983 1867 c-62 -67 -70 -85 -84 -185 -11 -88 -8 -298 7 -363 l6 -26
46 13 c25 8 46 15 47 17 2 1 -3 36 -11 77 -25 144 -14 338 26 456 11 30 15 54
11 54 -5 0 -26 -20 -48 -43z"/>
<path d="M1218 1848 l-15 -53 41 -9 c115 -23 198 -51 266 -88 l75 -40 48 54
c75 84 75 83 17 113 -67 34 -193 62 -316 70 l-101 7 -15 -54z m270 -14 c94
-19 142 -39 142 -57 0 -7 -11 -24 -25 -37 -22 -21 -29 -23 -53 -13 -15 6 -58
24 -97 41 -38 16 -95 35 -125 42 -65 15 -72 18 -65 31 10 14 138 11 223 -7z"/>
<path d="M2128 1751 c-64 -132 -136 -230 -268 -362 -89 -89 -157 -146 -235
-198 -201 -134 -471 -250 -704 -302 -55 -13 -101 -27 -101 -31 0 -5 11 -20 24
-33 20 -20 31 -24 58 -19 494 87 937 359 1183 729 115 173 145 259 97 284 -14
7 -23 -3 -54 -68z"/>
<path d="M1190 1673 l0 -60 65 -16 c35 -9 89 -28 120 -42 l55 -26 50 38 c27
21 48 43 47 48 -7 27 -176 90 -299 111 l-38 6 0 -59z m183 -25 c38 -12 71 -28
74 -36 7 -17 -17 -34 -37 -25 -8 3 -50 18 -92 32 -86 30 -93 35 -83 51 8 13
42 8 138 -22z"/>
<path d="M812 1608 c-30 -80 -45 -164 -45 -255 -1 -45 1 -84 4 -87 2 -2 20 -1
39 3 l35 7 -5 55 c-3 30 -5 116 -5 192 0 75 -1 137 -2 137 -1 0 -10 -24 -21
-52z"/>
<path d="M2131 1494 l-42 -67 10 -66 c17 -110 23 -252 13 -318 -5 -35 -5 -63
-1 -63 13 0 70 160 85 238 8 40 14 96 14 123 0 56 -18 187 -29 207 -5 8 -22
-11 -50 -54z m33 -70 c8 -22 6 -105 -3 -129 -6 -15 -11 -1 -18 50 -10 69 -8
95 7 95 4 0 11 -7 14 -16z"/>
<path d="M1190 1537 c0 -27 23 -127 29 -127 11 0 140 70 146 79 2 5 -26 18
-63 29 -111 34 -112 35 -112 19z"/>
<path d="M1977 1304 l-58 -63 -3 -163 c-2 -98 -10 -196 -20 -247 -10 -46 -15
-85 -13 -87 2 -2 35 23 74 55 l70 60 14 83 c15 89 16 317 2 383 l-8 41 -58
-62z m31 -206 c-3 -138 -6 -169 -23 -202 -28 -56 -50 -61 -41 -10 3 22 9 107
12 189 5 113 10 154 22 168 8 9 19 17 25 17 5 0 8 -64 5 -162z"/>
<path d="M1790 1133 c-53 -45 -55 -48 -66 -117 -16 -96 -31 -151 -61 -213 -13
-29 -22 -56 -20 -60 3 -5 30 -21 60 -38 46 -24 59 -27 79 -18 21 9 28 25 41
90 30 138 49 404 30 402 -5 0 -33 -21 -63 -46z m25 -132 c-8 -97 -20 -177 -35
-229 -12 -47 -33 -54 -69 -24 l-22 17 25 61 c14 34 33 101 42 149 10 48 24 93
32 101 26 26 34 5 27 -75z"/>
<path d="M1630 1021 c-14 -11 -58 -37 -99 -59 l-75 -41 67 -68 66 -68 24 55
c13 30 30 80 36 110 7 30 15 63 18 73 6 22 -5 21 -37 -2z m-43 -137 l-14 -27
-22 22 c-28 28 -27 35 12 53 30 14 32 14 35 -3 2 -10 -3 -30 -11 -45z"/>
<path d="M1338 872 c-32 -15 -58 -31 -58 -36 0 -19 148 -153 200 -180 51 -27
61 -28 123 -22 37 4 67 11 67 14 0 4 -17 17 -38 28 -48 28 -159 130 -197 183
-16 22 -32 40 -35 40 -3 -1 -31 -13 -62 -27z m137 -112 c43 -44 76 -82 72 -86
-20 -20 -207 131 -193 155 15 24 45 7 121 -69z"/>
<path d="M1123 797 c-40 -12 -73 -24 -73 -27 0 -10 124 -78 180 -99 67 -25
180 -52 179 -43 0 4 -21 21 -47 38 -26 17 -68 57 -95 90 -26 32 -53 60 -60 60
-6 1 -45 -8 -84 -19z m82 -35 c6 -4 17 -16 25 -26 14 -18 13 -19 -15 -12 -16
4 -35 12 -42 18 -23 19 7 38 32 20z"/>
<path d="M986 723 c-3 -8 -6 -37 -6 -64 0 -100 -55 -165 -133 -155 -48 5 -61
16 -114 99 -49 76 -91 107 -145 107 -78 0 -88 -84 -14 -115 24 -10 44 -31 65
-69 36 -62 98 -122 138 -133 54 -15 146 -8 189 14 79 42 116 102 128 208 l5
50 -54 37 c-43 29 -55 33 -59 21z m-343 -74 c15 -11 45 -48 67 -82 56 -83 82
-102 147 -102 81 0 144 59 157 150 10 66 36 54 36 -16 0 -76 -65 -150 -147
-167 -94 -21 -165 13 -223 105 -22 34 -55 74 -75 88 -19 15 -32 31 -29 36 9
15 40 10 67 -12z"/>
</g>
</svg>
